<svg xmlns="http://www.w3.org/2000/svg" width="279" height="200" viewBox="0 0 279 200">
  <path fill="#2E2F33" d="M152,196 L275,196 L275,4 L152,4 L152,88.0829584 C149.162287,88.5590365 147,91.0270037 147,94 C147,96.9729963 149.162287,99.4409635 152,99.9170416 L152,196 Z M0,0 L279,0 L279,200 L0,200 L0,0 Z M56.1132812,103.007812 C55.1445264,103.007812 54.2734414,102.636722 53.5,101.894531 C52.7265586,101.15234 52.3398438,100.546877 52.3398438,100.078125 L52.3398438,88.40625 C52.3398438,87.999998 52.7460897,87.3437545 53.5585938,86.4375 C54.3710978,85.5312455 55.2929636,85.078125 56.3242188,85.078125 C57.8554764,85.078125 58.8710913,85.8945231 59.3710938,87.5273438 C59.8710962,89.1601644 60.1210938,91.3515488 60.1210938,94.1015625 C60.1210938,96.4765744 59.9570329,98.2968687 59.6289062,99.5625 C59.0195282,101.859386 57.8476649,103.007812 56.1132812,103.007812 Z M42.9414062,113.742188 L42.9414062,114.890625 L56.0664062,114.890625 L56.0664062,113.90625 C54.8007749,113.828125 53.8984402,113.55469 53.359375,113.085938 C52.8203098,112.617185 52.4960943,111.750006 52.3867188,110.484375 C52.3710937,110.218749 52.3554688,109.007823 52.3398438,106.851562 L52.3398438,102.796875 C53.0117221,103.546879 53.6601531,104.124998 54.2851562,104.53125 C55.4570371,105.296879 56.6992122,105.679688 58.0117188,105.679688 C60.5742316,105.679688 62.7499911,104.535168 64.5390625,102.246094 C66.3281339,99.9570198 67.2226562,97.0703299 67.2226562,93.5859375 C67.2226562,89.8359188 66.3906333,87.0156345 64.7265625,85.125 C63.0624917,83.2343655 60.9726688,82.2890625 58.4570312,82.2890625 C56.7070225,82.2890625 55.2695369,82.742183 54.1445312,83.6484375 C53.5195281,84.1640651 52.8789095,84.9687445 52.2226562,86.0625 L52.2226562,82.8984375 L43.0585938,82.8984375 L43.0585938,84.0703125 C44.0585987,84.2109382 44.7343732,84.4570295 45.0859375,84.8085938 C45.4375018,85.160158 45.6132812,85.8359325 45.6132812,86.8359375 L45.6132812,110.953125 C45.6132812,111.968755 45.4257831,112.660154 45.0507812,113.027344 C44.6757794,113.394533 43.9726614,113.632812 42.9414062,113.742188 Z M69.6367188,103.851562 L69.6367188,105 L82.4335938,105 L82.4335938,103.851562 C81.0585869,103.726562 80.1406273,103.464846 79.6796875,103.066406 C79.2187477,102.667967 78.9882812,101.671883 78.9882812,100.078125 L78.9882812,91.0078125 C78.9882812,89.5390552 79.3124968,88.4101602 79.9609375,87.6210938 C80.6093782,86.8320273 81.253903,86.4375 81.8945312,86.4375 C82.1914077,86.4375 82.7109338,86.9140577 83.453125,87.8671875 C84.1953162,88.8203173 85.0742137,89.296875 86.0898438,89.296875 C86.9804732,89.296875 87.7031222,88.9921905 88.2578125,88.3828125 C88.8125028,87.7734345 89.0898438,87.0000047 89.0898438,86.0625 C89.0898438,84.8437439 88.6953164,83.9179719 87.90625,83.2851562 C87.1171836,82.6523406 86.2304737,82.3359375 85.2460938,82.3359375 C83.9335872,82.3359375 82.7773487,82.7265586 81.7773438,83.5078125 C80.7773388,84.2890664 79.7695363,85.3437434 78.7539062,86.671875 L78.7539062,82.8984375 L69.6367188,82.8984375 L69.6367188,84.0703125 C70.6523488,84.1953131 71.3320295,84.4374982 71.6757812,84.796875 C72.019533,85.1562518 72.1914062,85.8359325 72.1914062,86.8359375 L72.1914062,99.890625 L72.1445312,101.296875 C72.1132811,102.23438 71.9179705,102.867186 71.5585938,103.195312 C71.199217,103.523439 70.5585984,103.742187 69.6367188,103.851562 Z M90.2851562,94.0078125 C90.2851562,97.3359541 91.3085835,100.121083 93.3554688,102.363281 C95.402354,104.60548 97.9882656,105.726562 101.113281,105.726562 C104.332047,105.726562 106.941396,104.57423 108.941406,102.269531 C110.941416,99.9648322 111.941406,97.2109535 111.941406,94.0078125 C111.941406,90.7577963 110.929698,87.9921989 108.90625,85.7109375 C106.882802,83.4296761 104.285172,82.2890625 101.113281,82.2890625 C98.0038907,82.2890625 95.4218853,83.4062388 93.3671875,85.640625 C91.3124897,87.8750112 90.2851562,90.6640458 90.2851562,94.0078125 Z M97.3398438,94.0078125 C97.3398438,90.6952959 97.5195295,88.343757 97.8789062,86.953125 C98.425784,84.8749896 99.5117106,83.8359375 101.136719,83.8359375 C102.621101,83.8359375 103.617185,84.6367107 104.125,86.2382812 C104.632815,87.8398518 104.886719,90.4296696 104.886719,94.0078125 C104.886719,97.6015805 104.644534,100.195305 104.160156,101.789062 C103.675779,103.38282 102.660164,104.179688 101.113281,104.179688 C99.4882731,104.179688 98.4023465,103.140635 97.8554688,101.0625 C97.511717,99.7187433 97.3398438,97.3672043 97.3398438,94.0078125 Z M127.269531,103.007812 C126.300776,103.007812 125.429691,102.636722 124.65625,101.894531 C123.882809,101.15234 123.496094,100.546877 123.496094,100.078125 L123.496094,88.40625 C123.496094,87.999998 123.90234,87.3437545 124.714844,86.4375 C125.527348,85.5312455 126.449214,85.078125 127.480469,85.078125 C129.011726,85.078125 130.027341,85.8945231 130.527344,87.5273438 C131.027346,89.1601644 131.277344,91.3515488 131.277344,94.1015625 C131.277344,96.4765744 131.113283,98.2968687 130.785156,99.5625 C130.175778,101.859386 129.003915,103.007812 127.269531,103.007812 Z M114.097656,113.742188 L114.097656,114.890625 L127.222656,114.890625 L127.222656,113.90625 C125.957025,113.828125 125.05469,113.55469 124.515625,113.085938 C123.97656,112.617185 123.652344,111.750006 123.542969,110.484375 C123.527344,110.218749 123.511719,109.007823 123.496094,106.851562 L123.496094,102.796875 C124.167972,103.546879 124.816403,104.124998 125.441406,104.53125 C126.613287,105.296879 127.855462,105.679688 129.167969,105.679688 C131.730482,105.679688 133.906241,104.535168 135.695312,102.246094 C137.484384,99.9570198 138.378906,97.0703299 138.378906,93.5859375 C138.378906,89.8359188 137.546883,87.0156345 135.882812,85.125 C134.218742,83.2343655 132.128919,82.2890625 129.613281,82.2890625 C127.863272,82.2890625 126.425787,82.742183 125.300781,83.6484375 C124.675778,84.1640651 124.03516,84.9687445 123.378906,86.0625 L123.378906,82.8984375 L114.214844,82.8984375 L114.214844,84.0703125 C115.214849,84.2109382 115.890623,84.4570295 116.242188,84.8085938 C116.593752,85.160158 116.769531,85.8359325 116.769531,86.8359375 L116.769531,110.953125 C116.769531,111.968755 116.582033,112.660154 116.207031,113.027344 C115.832029,113.394533 115.128911,113.632812 114.097656,113.742188 Z M48.8642578,133.439941 L47.2246094,135.045898 C48.7444737,136.438484 50.4552314,137.134766 52.3569336,137.134766 C53.7570057,137.119792 54.9062455,136.797855 55.8046875,136.168945 C56.7106165,135.55501 57.1710611,134.682786 57.1860352,133.552246 C57.1860352,132.586421 56.9352239,131.789066 56.4335938,131.160156 C55.8945286,130.516273 55.0185608,130.149415 53.8056641,130.05957 L51.8740234,129.913574 C51.3050102,129.853678 50.9082042,129.71517 50.6835938,129.498047 C50.4365222,129.303384 50.3204752,129.075034 50.3354492,128.812988 C50.3354492,128.401202 50.4889308,128.064292 50.7958984,127.802246 C51.0878921,127.540201 51.600745,127.40918 52.3344727,127.40918 C52.9783561,127.40918 53.5473608,127.502766 54.0415039,127.689941 C54.543134,127.899578 55.0185524,128.165363 55.4677734,128.487305 L56.9165039,126.791504 C56.3474906,126.297361 55.7036169,125.904298 54.9848633,125.612305 C54.6105125,125.477538 54.2099631,125.372722 53.7832031,125.297852 C53.3564432,125.230468 52.8735379,125.196777 52.3344727,125.196777 C51.0916279,125.196777 50.065922,125.496254 49.2573242,126.095215 C48.4262654,126.694176 48.0032553,127.592605 47.9882812,128.790527 C48.0032553,129.786301 48.3251922,130.561195 48.9541016,131.115234 C49.5680369,131.684248 50.3653922,132.013671 51.3461914,132.103516 L53.4125977,132.283203 C53.8468446,132.298177 54.1949857,132.391763 54.4570312,132.563965 C54.7115898,132.728679 54.8388672,133.020668 54.8388672,133.439941 C54.8388672,133.911623 54.6254904,134.278482 54.1987305,134.540527 C53.7719705,134.802573 53.2216831,134.933594 52.5478516,134.933594 C51.0429612,134.933594 49.8151089,134.435715 48.8642578,133.439941 Z M63.7904296,121.793945 L63.7904296,125.342773 L62.6224608,125.342773 L62.6224608,127.128418 L63.7904296,127.128418 L63.7904296,134.125 C63.7904296,135.045903 64.0599581,135.749672 64.5990233,136.236328 C65.1231145,136.745445 65.7969359,137 66.6205077,137 L67.8446288,137 L67.8446288,134.787598 L66.9686522,134.787598 C66.399639,134.802572 66.1226235,134.514326 66.1375976,133.922852 L66.1375976,127.128418 L67.8446288,127.128418 L67.8446288,125.342773 L66.1375976,125.342773 L66.1375976,121.793945 L63.7904296,121.793945 Z M72.4724607,125.342773 L76.6501951,136.539551 L76.0100584,138.493652 C75.9052402,138.830568 75.721811,139.085123 75.4597654,139.257324 C75.1977199,139.422039 74.9132175,139.504395 74.6062498,139.504395 L73.9211912,139.504395 L73.9211912,141.716797 L74.6960936,141.716797 C75.4223342,141.716797 76.0736948,141.555828 76.6501951,141.233887 C77.2192084,140.896971 77.6646792,140.290532 77.9866209,139.414551 L83.0066404,125.342773 L80.5134764,125.342773 L77.7620115,133.507324 L77.7170897,133.507324 L74.9543943,125.342773 L72.4724607,125.342773 Z M88.4542966,120.625977 L88.4542966,134.169922 C88.4542966,135.195643 88.7462859,135.925616 89.3302732,136.359863 C89.8843124,136.786623 90.5880814,137 91.4416013,137 L92.4860349,137 L92.4860349,134.787598 L91.6774411,134.787598 C91.0934538,134.787598 90.8014646,134.521813 90.8014646,133.990234 L90.8014646,120.625977 L88.4542966,120.625977 Z M100.258398,132.058594 L107.524511,132.058594 L107.524511,130.126953 C107.509537,128.592115 107.034119,127.386723 106.098242,126.510742 C105.177339,125.649735 104.05056,125.211751 102.717871,125.196777 C102.163831,125.196777 101.602314,125.297851 101.0333,125.5 C100.4568,125.702149 99.9364603,126.031573 99.4722652,126.488281 C99.0155572,126.937502 98.641212,127.551428 98.3492184,128.330078 C98.0572247,129.093754 97.9112301,130.052078 97.9112301,131.205078 C97.9112301,132.403001 98.0796854,133.376298 98.4166012,134.125 C98.7235689,134.90365 99.1241182,135.510089 99.6182613,135.944336 C99.8728199,136.153972 100.146092,136.329915 100.438086,136.472168 C100.715105,136.636882 100.999608,136.767903 101.291601,136.865234 C101.875588,137.044923 102.474541,137.134766 103.088476,137.134766 C104.698185,137.14974 106.098236,136.52084 107.288671,135.248047 L105.592871,133.799316 C104.844169,134.555505 103.994405,134.933594 103.043554,134.933594 C102.227469,134.933594 101.568622,134.686526 101.066992,134.192383 C100.527927,133.705727 100.258398,132.994471 100.258398,132.058594 Z M105.177343,130.126953 L100.258398,130.126953 C100.30332,129.221024 100.546645,128.535972 100.988379,128.071777 C101.4376,127.630043 102.014091,127.40918 102.717871,127.40918 C103.42165,127.40918 103.998142,127.630043 104.447363,128.071777 C104.904071,128.535972 105.147395,129.221024 105.177343,130.126953 Z M121.058105,135.775879 L121.058105,137 L123.405273,137 L123.405273,120.625977 L121.058105,120.625977 L121.058105,126.578125 C120.623858,126.166339 120.1709,125.829428 119.699218,125.567383 C119.190101,125.320311 118.63607,125.196777 118.037109,125.196777 C116.614576,125.234212 115.573896,125.743322 114.915039,126.724121 C114.593097,127.090985 114.37972,127.57389 114.274902,128.172852 C114.147623,128.764326 114.083984,129.760084 114.083984,131.160156 C114.083984,132.537767 114.147623,133.526039 114.274902,134.125 C114.37972,134.753909 114.593097,135.251789 114.915039,135.618652 C115.266928,136.067873 115.704912,136.427245 116.229003,136.696777 C116.730634,136.973797 117.333329,137.119792 118.037109,137.134766 C119.279954,137.104818 120.286942,136.65186 121.058105,135.775879 Z M118.755859,127.543945 C119.309898,127.543945 119.747882,127.652505 120.069824,127.869629 C120.391765,128.086752 120.612629,128.371255 120.732421,128.723145 C120.882162,129.075034 120.983235,129.456866 121.035644,129.868652 C121.050618,130.280438 121.058105,130.710935 121.058105,131.160156 C121.058105,131.571942 121.050618,131.991209 121.035644,132.417969 C120.983235,132.852216 120.882162,133.245278 120.732421,133.597168 C120.612629,133.949058 120.391765,134.23356 120.069824,134.450684 C119.747882,134.675294 119.309898,134.787598 118.755859,134.787598 C118.20182,134.787598 117.77881,134.682781 117.486816,134.473145 C117.164874,134.256021 116.929037,133.979006 116.779296,133.64209 C116.637043,133.2902 116.543457,132.893394 116.498535,132.45166 C116.453613,132.032387 116.431152,131.60189 116.431152,131.160156 C116.431152,130.695961 116.453613,130.243004 116.498535,129.80127 C116.543457,129.389484 116.637043,129.007651 116.779296,128.655762 C116.929037,128.303872 117.164874,128.026856 117.486816,127.824707 C117.77881,127.637532 118.20182,127.543945 118.755859,127.543945 Z M177.84375,86.3671875 C177.84375,85.8203098 177.742189,85.3554707 177.539062,84.9726562 C177.335936,84.5898418 176.968753,84.3984375 176.4375,84.3984375 C175.312494,84.3984375 174.207037,85.3046784 173.121094,87.1171875 C172.035151,88.9296966 171.070317,91.4687337 170.226562,94.734375 C172.992201,94.1093719 174.953119,92.9062589 176.109375,91.125 C177.265631,89.3437411 177.84375,87.7578195 177.84375,86.3671875 Z M163.40625,98.2265625 C163.40625,94.6015444 164.796861,91.1562663 167.578125,87.890625 C170.453139,84.5156081 173.609358,82.828125 177.046875,82.828125 C178.531257,82.828125 179.761714,83.1953088 180.738281,83.9296875 C181.714849,84.6640662 182.203125,85.7031183 182.203125,87.046875 C182.203125,89.0781352 181.062511,90.9999909 178.78125,92.8125 C176.499989,94.6250091 173.539081,95.7812475 169.898438,96.28125 C169.804687,96.7656274 169.734375,97.2187479 169.6875,97.640625 C169.640625,98.0625021 169.617188,98.4062487 169.617188,98.671875 C169.617188,99.6562549 169.757811,100.429685 170.039062,100.992188 C170.539065,102.039068 171.499993,102.5625 172.921875,102.5625 C174.078131,102.5625 175.226557,101.968756 176.367188,100.78125 C176.976566,100.156247 177.632809,99.289068 178.335938,98.1796875 L179.742188,99 C178.539056,101.015635 177.406255,102.492183 176.34375,103.429688 C174.656242,104.929695 172.679699,105.679688 170.414062,105.679688 C168.726554,105.679688 167.136726,105.066412 165.644531,103.839844 C164.152336,102.613275 163.40625,100.7422 163.40625,98.2265625 Z M183.914062,105 C185.32032,100.421852 186.468746,96.4843915 187.359375,93.1875 C188.32813,89.6406073 188.8125,87.5312534 188.8125,86.859375 C188.8125,86.265622 188.617189,85.8828134 188.226562,85.7109375 C187.835936,85.5390616 187.164067,85.453125 186.210938,85.453125 L186.210938,84.1875 C188.210947,84.0624994 189.898431,83.8984385 191.273438,83.6953125 C192.164067,83.5703119 193.679677,83.3046895 195.820312,82.8984375 L193.148438,91.40625 L193.359375,91.453125 C194.734382,88.7968617 195.835933,86.914068 196.664062,85.8046875 C198.117195,83.8671778 199.515618,82.8984375 200.859375,82.8984375 C201.79688,82.8984375 202.488279,83.2109344 202.933594,83.8359375 C203.378908,84.4609406 203.601562,85.1562462 203.601562,85.921875 C203.601562,86.8437546 203.355471,87.6718713 202.863281,88.40625 C202.371091,89.1406287 201.687504,89.5078125 200.8125,89.5078125 C200.421873,89.5078125 200.058595,89.4296883 199.722656,89.2734375 C199.386717,89.1171867 199.101564,88.8828141 198.867188,88.5703125 L198.421875,88.0078125 C198.34375,87.914062 198.261719,87.8359378 198.175781,87.7734375 C198.089843,87.7109372 197.976563,87.6796875 197.835938,87.6796875 C197.226559,87.6796875 196.429692,88.5078042 195.445312,90.1640625 C194.460933,91.8203208 193.632816,93.5078039 192.960938,95.2265625 C192.492185,96.4140684 191.914066,98.1015516 191.226562,100.289062 C190.539059,102.476573 190.031252,104.04687 189.703125,105 L183.914062,105 Z M203.4375,102.234375 C203.4375,101.828123 203.539061,101.187504 203.742188,100.3125 C203.835938,99.8906229 203.992186,99.2734416 204.210938,98.4609375 L209.882812,77.7890625 C210.023438,77.2578098 210.125,76.8281266 210.1875,76.5 C210.25,76.1718734 210.28125,75.8906262 210.28125,75.65625 C210.28125,74.9531215 210.046877,74.5234383 209.578125,74.3671875 C209.109373,74.2109367 208.343755,74.1484373 207.28125,74.1796875 L207.28125,72.890625 C209.656262,72.6562488 211.261715,72.4804693 212.097656,72.3632812 C212.933598,72.2460932 214.656237,71.9453149 217.265625,71.4609375 L210.328125,96.5625 C209.984373,97.8281313 209.773438,98.6328108 209.695312,98.9765625 C209.414061,100.117193 209.273438,100.874998 209.273438,101.25 C209.273438,101.578127 209.359374,101.796874 209.53125,101.90625 C209.703126,102.015626 209.859374,102.070312 210,102.070312 C210.468752,102.070312 211.066403,101.664067 211.792969,100.851562 C212.519535,100.039058 213.16406,99.1640672 213.726562,98.2265625 L214.78125,98.90625 C213.374993,101.062511 212.234379,102.562496 211.359375,103.40625 C209.906243,104.812507 208.359383,105.515625 206.71875,105.515625 C205.828121,105.515625 205.058597,105.214847 204.410156,104.613281 C203.761716,104.011716 203.4375,103.218755 203.4375,102.234375 Z M219.539062,111.070312 C220.351567,111.070312 221.29687,110.417975 222.375,109.113281 C223.45313,107.808587 223.992188,106.554694 223.992188,105.351562 C223.992188,104.257807 223.687503,102.062516 223.078125,98.765625 C222.687498,96.6562395 222.27344,94.5937601 221.835938,92.578125 C221.039059,89.0312323 220.449221,86.9296908 220.066406,86.2734375 C219.683592,85.6171842 218.937506,85.2890625 217.828125,85.2890625 L217.828125,84 C219.312507,83.8593743 220.874992,83.6406265 222.515625,83.34375 C224.156258,83.0468735 224.890626,82.9140623 224.71875,82.9453125 L225.046875,82.8984375 C225.421877,84.007818 225.99609,86.2070148 226.769531,89.4960938 C227.542973,92.7851727 228.148435,95.7656116 228.585938,98.4375 L228.773438,99.5625 L229.664062,98.015625 C230.398441,96.7656187 231.128903,95.2656338 231.855469,93.515625 C232.582035,91.7656162 232.945312,90.5859405 232.945312,89.9765625 C232.945312,89.679686 232.867188,89.3945326 232.710938,89.1210938 C232.554687,88.8476549 232.296877,88.5859387 231.9375,88.3359375 L231.5625,88.078125 C231.296874,87.8906241 231.046876,87.6406266 230.8125,87.328125 C230.453123,86.8124974 230.273438,86.2656279 230.273438,85.6875 C230.273438,84.9999966 230.535154,84.3632842 231.058594,83.7773438 C231.582034,83.1914033 232.242184,82.8984375 233.039062,82.8984375 C233.742191,82.8984375 234.414059,83.1562474 235.054688,83.671875 C235.695316,84.1875026 236.015625,85.0234317 236.015625,86.1796875 C236.015625,88.085947 235.117196,90.9531059 233.320312,94.78125 C231.976556,97.6250142 230.414071,100.468736 228.632812,103.3125 C226.1328,107.265645 223.871104,110.191397 221.847656,112.089844 C219.824209,113.988291 217.773448,114.9375 215.695312,114.9375 C214.804683,114.9375 214.066409,114.636722 213.480469,114.035156 C212.894528,113.433591 212.601562,112.757816 212.601562,112.007812 C212.601562,111.210934 212.874997,110.578127 213.421875,110.109375 C213.968753,109.640623 214.585934,109.40625 215.273438,109.40625 C215.992191,109.40625 216.804683,109.683591 217.710938,110.238281 C218.617192,110.792972 219.226561,111.070312 219.539062,111.070312 Z M232,134.886906 L226.019226,128.666667 L218.968211,136 L211.917195,128.666667 L204.86618,136 L197.815164,128.666667 L190.764149,136 L183.713133,128.666667 L176.662117,136 L169.611102,128.666667 L163,135.542472 L163,130.875806 L169.611102,124 L176.662117,131.333333 L183.713133,124 L190.764149,131.333333 L197.815164,124 L204.86618,131.333333 L211.917195,124 L218.968211,131.333333 L226.019226,124 L232,130.22024 L232,134.886906 Z"/>
</svg>
